<?xml version="1.0" encoding="utf-8"?>
<!-- Generator: Adobe Illustrator 25.3.1, SVG Export Plug-In . SVG Version: 6.00 Build 0)  -->
<svg version="1.1" id="Layer_1" xmlns="http://www.w3.org/2000/svg" xmlns:xlink="http://www.w3.org/1999/xlink" x="0px" y="0px"
	 viewBox="0 0 369 74.3" style="enable-background:new 0 0 369 74.3;" xml:space="preserve">
<style type="text/css">
	.st0{fill:#FFFFFF;stroke:#000000;}
	.st1{fill:none;stroke:#000000;stroke-width:0.6552;stroke-miterlimit:10;}
</style>
<g>
	<path class="st0" d="M17.1,1.1c8.7,0,12.7,6.8,12.7,14.1c0,7.5-4.1,13.9-12.9,13.9h-5v10.4H1.3V1.1H17.1z M11.9,20.7h2.3
		c2.9,0,4.9-1.9,4.9-5.4c0-3.5-2-5.4-4.9-5.4h-2.3V20.7z"/>
	<path class="st0" d="M28.7,39.6L39.1,1.1h13.5L63,39.6H51.7l-1.5-7.3h-9.5l-1.5,7.3H28.7z M45.3,10.9L42.5,24h6l-2.7-13.1H45.3z"/>
	<path class="st0" d="M74.5,27.8c0.1,1.8,1.7,3.7,5.1,3.7c3.2,0,4.4-1.4,4.4-3c0-2-1.7-2.6-4.8-3.3l-4.2-0.8
		C69.2,23.3,65,20.1,65,13c0-7.9,5.8-12.5,14.4-12.5c9.8,0,14.2,6.2,14.2,12.2h-9.6C83.9,11.1,82.5,9,79.4,9c-2.7,0-3.9,1.4-3.9,3
		c0,1.7,1.7,2.5,4.5,3l4.4,0.8c4.8,0.8,9.8,3.5,9.8,11.5c0,7.5-4.8,13-15,13c-11.4,0-14.8-6.5-14.8-12.4H74.5z"/>
	<path class="st0" d="M107.1,27.8c0.1,1.8,1.7,3.7,5.1,3.7c3.2,0,4.4-1.4,4.4-3c0-2-1.7-2.6-4.8-3.3l-4.2-0.8
		c-5.7-1.1-9.8-4.3-9.8-11.4c0-7.9,5.8-12.5,14.4-12.5c9.8,0,14.2,6.2,14.2,12.2h-9.6c-0.1-1.6-1.4-3.6-4.5-3.6
		c-2.7,0-3.9,1.4-3.9,3c0,1.7,1.7,2.5,4.5,3l4.4,0.8c4.8,0.8,9.8,3.5,9.8,11.5c0,7.5-4.8,13-15,13c-11.4,0-14.8-6.5-14.8-12.4H107.1
		z"/>
	<path class="st0" d="M128.3,39.6l10.5-38.4h13.5l10.4,38.4h-11.4l-1.5-7.3h-9.5l-1.5,7.3H128.3z M144.9,10.9L142.1,24h6l-2.7-13.1
		H144.9z"/>
	<path class="st0" d="M184.5,14.4c-0.2-2.3-1.8-4.4-4.9-4.4c-3.5,0-5.4,2.9-5.4,8.3v4.1c0,4.3,1,8.5,5.7,8.5c3.3,0,4.9-2.4,4.9-4.6
		v-0.5h-4.3v-7.8h14.3V25c0,7.5-4.2,15.2-15.2,15.2c-11.7,0-16.1-8.5-16.1-17.9v-4.3c0-10.1,5.6-17.6,16.2-17.6
		c10.4,0,15.1,7.2,15.1,13.9H184.5z"/>
	<path class="st0" d="M223.8,39.6h-24.7V1.1h24.7v9.1h-14.1v6.1h13.2v8.2h-13.2v6h14.1V39.6z"/>
	<path class="st0" d="M235.9,39.6l10.5-38.4h13.5l10.4,38.4h-11.4l-1.5-7.3H248l-1.5,7.3H235.9z M252.5,10.9L249.7,24h6L253,10.9
		H252.5z"/>
	<path class="st0" d="M282.4,24.6c0,4.3,2,5.9,4.7,5.9c2.7,0,4.7-1.7,4.7-5.9V1.1h10.6v25.2c0,8.5-5.8,13.9-15.3,13.9
		s-15.3-5.5-15.3-13.9V1.1h10.6V24.6z"/>
	<path class="st0" d="M314.9,39.6v-29h-8.8V1.1h28.2v9.5h-8.8v29H314.9z"/>
	<path class="st0" d="M335.8,18.5c0-10.9,5.8-18,16.3-18c10.6,0,16.3,7.2,16.3,18v3.8c0,10.8-5.7,17.9-16.3,17.9
		c-10.6,0-16.3-7.1-16.3-17.9V18.5z M346.7,22.4c0,5.5,2.1,8.5,5.4,8.5c3.4,0,5.4-2.9,5.4-8.5v-4c0-5.5-2.1-8.5-5.4-8.5
		c-3.4,0-5.4,3-5.4,8.5V22.4z"/>
</g>
<g>
	<path d="M1.8,73.6H0l2.5-15.7h2.6c0.7,0,1.4,0,2,0.1c0.7,0.1,1.2,0.3,1.8,0.7c0.5,0.4,0.9,0.9,1.1,1.6c0.2,0.6,0.2,1.3,0.1,2
		c-0.1,0.6-0.3,1.3-0.7,1.9C9,64.8,8.6,65.3,8,65.7c-0.6,0.4-1.2,0.7-1.9,0.9c-0.7,0.1-1.3,0.2-2,0.2H2.8L1.8,73.6z M3.1,65.1h1.2
		c0.5,0,1,0,1.4-0.1c0.4-0.1,0.8-0.2,1.2-0.4c0.4-0.2,0.7-0.5,0.9-0.9s0.4-0.8,0.5-1.4c0.1-0.6,0.1-1.1-0.1-1.5
		C8,60.4,7.7,60.1,7.4,60s-0.8-0.3-1.3-0.3c-0.5,0-1-0.1-1.5-0.1H4L3.1,65.1z"/>
	<path d="M13,57.9h8.1l-0.2,1.6h-6.4l-0.7,4.7h6.2l-0.3,1.6h-6.2l-1,6.2h6.4l-0.2,1.6h-8.1L13,57.9z"/>
	<path d="M23.4,73.6h-1.8l2.5-15.7h2.3c0.8,0,1.5,0.1,2.1,0.2c0.7,0.1,1.2,0.3,1.7,0.7c0.5,0.3,0.8,0.8,1.1,1.3s0.3,1.3,0.1,2.2
		c-0.1,0.6-0.3,1.2-0.5,1.7c-0.3,0.5-0.6,0.9-1,1.3c-0.4,0.4-0.9,0.7-1.4,0.9c-0.5,0.2-1.1,0.4-1.7,0.4l3.9,7h-2.1l-3.7-6.9h-0.4
		L23.4,73.6z M24.7,65.2h0.5c0.5,0,1,0,1.5-0.1c0.5-0.1,0.9-0.2,1.3-0.4s0.8-0.5,1-0.9s0.5-0.9,0.6-1.5c0.1-0.6,0.1-1.1-0.1-1.5
		c-0.2-0.4-0.4-0.7-0.8-0.9c-0.3-0.2-0.7-0.3-1.2-0.4c-0.5-0.1-1-0.1-1.5-0.1h-0.5L24.7,65.2z"/>
	<path d="M36.9,59.5l-0.7,4.7h5.2l-0.3,1.6h-5.2l-1.2,7.8h-1.8l2.5-15.7h7.1l-0.2,1.6H36.9z"/>
	<path d="M52.8,57.6c1.1,0,2.1,0.2,3.1,0.6c0.9,0.4,1.7,1,2.3,1.7c0.6,0.7,1.1,1.6,1.4,2.6c0.3,1,0.3,2,0.1,3.2
		c-0.2,1.1-0.6,2.2-1.2,3.2c-0.6,1-1.3,1.8-2.2,2.6c-0.9,0.7-1.8,1.3-2.9,1.7c-1.1,0.4-2.1,0.6-3.3,0.6s-2.1-0.2-3.1-0.6
		c-0.9-0.4-1.7-1-2.3-1.7c-0.6-0.7-1.1-1.6-1.4-2.6c-0.3-1-0.3-2-0.1-3.2c0.2-1.1,0.6-2.2,1.1-3.2c0.6-1,1.3-1.9,2.2-2.6
		c0.9-0.7,1.8-1.3,2.9-1.7C50.6,57.9,51.6,57.6,52.8,57.6z M52.5,59.3c-0.9,0-1.8,0.2-2.6,0.5c-0.8,0.3-1.6,0.8-2.3,1.4
		c-0.7,0.6-1.2,1.3-1.7,2.1s-0.8,1.6-0.9,2.5c-0.1,0.9-0.1,1.7,0.1,2.5c0.2,0.8,0.6,1.5,1,2.1c0.5,0.6,1.1,1.1,1.8,1.4
		c0.7,0.3,1.5,0.5,2.4,0.5s1.8-0.2,2.6-0.5c0.8-0.3,1.6-0.8,2.3-1.4c0.7-0.6,1.2-1.3,1.7-2.1c0.5-0.8,0.8-1.6,0.9-2.5
		c0.1-0.9,0.1-1.7-0.1-2.5c-0.2-0.8-0.6-1.5-1-2.1c-0.5-0.6-1.1-1.1-1.8-1.4C54.2,59.4,53.4,59.3,52.5,59.3z"/>
	<path d="M62.6,73.6h-1.8l2.5-15.7h2.3c0.8,0,1.5,0.1,2.1,0.2c0.7,0.1,1.2,0.3,1.7,0.7c0.5,0.3,0.8,0.8,1.1,1.3s0.3,1.3,0.1,2.2
		c-0.1,0.6-0.3,1.2-0.5,1.7c-0.3,0.5-0.6,0.9-1,1.3c-0.4,0.4-0.9,0.7-1.4,0.9c-0.5,0.2-1.1,0.4-1.7,0.4l3.9,7h-2.1l-3.7-6.9h-0.4
		L62.6,73.6z M63.9,65.2h0.5c0.5,0,1,0,1.5-0.1c0.5-0.1,0.9-0.2,1.3-0.4s0.8-0.5,1-0.9s0.5-0.9,0.6-1.5c0.1-0.6,0.1-1.1-0.1-1.5
		c-0.2-0.4-0.4-0.7-0.8-0.9c-0.3-0.2-0.7-0.3-1.2-0.4c-0.5-0.1-1-0.1-1.5-0.1h-0.5L63.9,65.2z"/>
	<path d="M76.8,57l3.6,13.2L88.2,57l0.6,16.6H87L86.6,63h0l-6.9,11.3L76.5,63h0l-3.7,10.6H71L76.8,57z"/>
	<path d="M93.8,69.2l-2.6,4.5h-1.9l9.9-16.5l4.5,16.5h-1.9l-1.1-4.5H93.8z M98.5,61.2l-3.7,6.3h5.3L98.5,61.2z"/>
	<path d="M108,57.2l10.2,12.8l1.9-12.2h1.8l-2.6,16.4l-10.2-12.8l-1.9,12.1h-1.7L108,57.2z"/>
	<path d="M136.6,61.4c-0.5-0.7-1.2-1.2-1.9-1.5s-1.6-0.6-2.5-0.6c-0.9,0-1.7,0.2-2.6,0.5c-0.8,0.4-1.6,0.8-2.2,1.4
		c-0.7,0.6-1.2,1.3-1.7,2.1c-0.5,0.8-0.7,1.6-0.9,2.5c-0.1,0.9-0.1,1.7,0.1,2.5c0.2,0.8,0.6,1.5,1,2.1c0.5,0.6,1.1,1.1,1.8,1.4
		c0.7,0.4,1.5,0.5,2.4,0.5c0.9,0,1.8-0.2,2.7-0.6c0.9-0.4,1.7-0.9,2.4-1.5l-0.3,2.2c-0.8,0.5-1.6,0.9-2.4,1.1
		c-0.8,0.3-1.7,0.4-2.5,0.4c-1.1,0-2.1-0.2-3.1-0.6c-0.9-0.4-1.7-1-2.3-1.7c-0.6-0.7-1.1-1.6-1.4-2.6c-0.3-1-0.3-2-0.2-3.1
		c0.2-1.1,0.6-2.2,1.1-3.2c0.6-1,1.3-1.9,2.2-2.6c0.9-0.7,1.8-1.3,2.9-1.8c1.1-0.4,2.2-0.6,3.3-0.6c1.8,0,3.2,0.5,4.5,1.5
		L136.6,61.4z"/>
	<path d="M140.1,57.9h8.1l-0.2,1.6h-6.4l-0.7,4.7h6.2l-0.3,1.6h-6.2l-1,6.2h6.4l-0.2,1.6h-8.1L140.1,57.9z"/>
	<path class="st1" d="M156.6,66.2c0-1.2,0.9-2.1,2.1-2.1c1.1,0,2.1,0.9,2.1,2.1c0,1.1-0.9,2.1-2.1,2.1
		C157.5,68.3,156.6,67.4,156.6,66.2z"/>
	<path d="M174.7,57l3.6,13.2l7.8-13.2l0.6,16.6h-1.8L184.6,63h0l-6.9,11.3L174.5,63h0l-3.7,10.6h-1.8L174.7,57z"/>
	<path d="M191.8,69.2l-2.6,4.5h-1.9l9.9-16.5l4.5,16.5h-1.9l-1.1-4.5H191.8z M196.4,61.2l-3.7,6.3h5.3L196.4,61.2z"/>
	<path d="M205,73.6h-1.8l2.5-15.7h2.3c0.8,0,1.5,0.1,2.1,0.2c0.7,0.1,1.2,0.3,1.7,0.7c0.5,0.3,0.8,0.8,1.1,1.3s0.3,1.3,0.1,2.2
		c-0.1,0.6-0.3,1.2-0.5,1.7c-0.3,0.5-0.6,0.9-1,1.3c-0.4,0.4-0.9,0.7-1.4,0.9c-0.5,0.2-1.1,0.4-1.7,0.4l3.9,7h-2.1l-3.7-6.9h-0.4
		L205,73.6z M206.4,65.2h0.5c0.5,0,1,0,1.5-0.1c0.5-0.1,0.9-0.2,1.3-0.4s0.8-0.5,1-0.9s0.5-0.9,0.6-1.5c0.1-0.6,0.1-1.1-0.1-1.5
		c-0.2-0.4-0.4-0.7-0.8-0.9c-0.3-0.2-0.7-0.3-1.2-0.4c-0.5-0.1-1-0.1-1.5-0.1h-0.5L206.4,65.2z"/>
	<path d="M216.4,73.6h-1.7l2.5-15.7h1.7L216.4,73.6z"/>
	<path d="M222.3,57.2l10.2,12.8l1.9-12.2h1.8l-2.6,16.4l-10.2-12.8l-1.9,12.1h-1.7L222.3,57.2z"/>
	<path d="M239.4,57.9h8.1l-0.2,1.6h-6.4l-0.7,4.7h6.2l-0.3,1.6h-6.2l-1,6.2h6.4l-0.2,1.6h-8.1L239.4,57.9z"/>
	<path class="st1" d="M256.7,66.2c0-1.2,0.9-2.1,2.1-2.1c1.1,0,2.1,0.9,2.1,2.1c0,1.1-0.9,2.1-2.1,2.1
		C257.7,68.3,256.7,67.4,256.7,66.2z"/>
	<path d="M280.5,57.6c1.1,0,2.1,0.2,3.1,0.6c0.9,0.4,1.7,1,2.3,1.7c0.6,0.7,1.1,1.6,1.4,2.6c0.3,1,0.3,2,0.1,3.2
		c-0.2,1.1-0.6,2.2-1.2,3.2c-0.6,1-1.3,1.8-2.2,2.6c-0.9,0.7-1.8,1.3-2.9,1.7c-1.1,0.4-2.1,0.6-3.3,0.6s-2.1-0.2-3.1-0.6
		c-0.9-0.4-1.7-1-2.3-1.7c-0.6-0.7-1.1-1.6-1.4-2.6c-0.3-1-0.3-2-0.1-3.2c0.2-1.1,0.6-2.2,1.1-3.2c0.6-1,1.3-1.9,2.2-2.6
		c0.9-0.7,1.8-1.3,2.9-1.7C278.3,57.9,279.4,57.6,280.5,57.6z M280.3,59.3c-0.9,0-1.8,0.2-2.6,0.5c-0.8,0.3-1.6,0.8-2.3,1.4
		c-0.7,0.6-1.2,1.3-1.7,2.1s-0.8,1.6-0.9,2.5c-0.1,0.9-0.1,1.7,0.1,2.5c0.2,0.8,0.6,1.5,1,2.1c0.5,0.6,1.1,1.1,1.8,1.4
		c0.7,0.3,1.5,0.5,2.4,0.5s1.8-0.2,2.6-0.5c0.8-0.3,1.6-0.8,2.3-1.4c0.7-0.6,1.2-1.3,1.7-2.1c0.5-0.8,0.8-1.6,0.9-2.5
		c0.1-0.9,0.1-1.7-0.1-2.5c-0.2-0.8-0.6-1.5-1-2.1c-0.5-0.6-1.1-1.1-1.8-1.4C282,59.4,281.2,59.3,280.3,59.3z"/>
	<path d="M292.6,59.5l-0.7,4.7h5.2l-0.3,1.6h-5.2l-1.2,7.8h-1.8l2.5-15.7h7.1l-0.2,1.6H292.6z"/>
	<path d="M302.5,59.5l-0.7,4.7h5.2l-0.3,1.6h-5.2l-1.2,7.8h-1.8l2.5-15.7h7.1l-0.2,1.6H302.5z"/>
	<path d="M310.3,73.6h-1.8l2.5-15.7h2.3c0.8,0,1.5,0.1,2.1,0.2c0.7,0.1,1.2,0.3,1.7,0.7c0.5,0.3,0.8,0.8,1.1,1.3s0.3,1.3,0.1,2.2
		c-0.1,0.6-0.3,1.2-0.5,1.7c-0.3,0.5-0.6,0.9-1,1.3c-0.4,0.4-0.9,0.7-1.4,0.9c-0.5,0.2-1.1,0.4-1.7,0.4l3.9,7h-2.1l-3.7-6.9h-0.4
		L310.3,73.6z M311.6,65.2h0.5c0.5,0,1,0,1.5-0.1c0.5-0.1,0.9-0.2,1.3-0.4s0.8-0.5,1-0.9s0.5-0.9,0.6-1.5c0.1-0.6,0.1-1.1-0.1-1.5
		c-0.2-0.4-0.4-0.7-0.8-0.9c-0.3-0.2-0.7-0.3-1.2-0.4c-0.5-0.1-1-0.1-1.5-0.1h-0.5L311.6,65.2z"/>
	<path d="M329.7,57.6c1.1,0,2.1,0.2,3.1,0.6c0.9,0.4,1.7,1,2.3,1.7c0.6,0.7,1.1,1.6,1.4,2.6c0.3,1,0.3,2,0.1,3.2
		c-0.2,1.1-0.6,2.2-1.2,3.2c-0.6,1-1.3,1.8-2.2,2.6c-0.9,0.7-1.8,1.3-2.9,1.7c-1.1,0.4-2.1,0.6-3.3,0.6s-2.1-0.2-3.1-0.6
		c-0.9-0.4-1.7-1-2.3-1.7c-0.6-0.7-1.1-1.6-1.4-2.6c-0.3-1-0.3-2-0.1-3.2c0.2-1.1,0.6-2.2,1.1-3.2c0.6-1,1.3-1.9,2.2-2.6
		c0.9-0.7,1.8-1.3,2.9-1.7C327.5,57.9,328.6,57.6,329.7,57.6z M329.5,59.3c-0.9,0-1.8,0.2-2.6,0.5c-0.8,0.3-1.6,0.8-2.3,1.4
		c-0.7,0.6-1.2,1.3-1.7,2.1s-0.8,1.6-0.9,2.5c-0.1,0.9-0.1,1.7,0.1,2.5c0.2,0.8,0.6,1.5,1,2.1c0.5,0.6,1.1,1.1,1.8,1.4
		c0.7,0.3,1.5,0.5,2.4,0.5s1.8-0.2,2.6-0.5c0.8-0.3,1.6-0.8,2.3-1.4c0.7-0.6,1.2-1.3,1.7-2.1c0.5-0.8,0.8-1.6,0.9-2.5
		c0.1-0.9,0.1-1.7-0.1-2.5c-0.2-0.8-0.6-1.5-1-2.1c-0.5-0.6-1.1-1.1-1.8-1.4C331.2,59.4,330.4,59.3,329.5,59.3z"/>
	<path d="M340.8,69.2l-2.6,4.5h-1.9l9.9-16.5l4.5,16.5h-1.9l-1.1-4.5H340.8z M345.5,61.2l-3.7,6.3h5.3L345.5,61.2z"/>
	<path d="M354.8,57.9h3c0.6,0,1.1,0,1.7,0.1c0.5,0,1,0.1,1.5,0.3s0.9,0.3,1.4,0.6s0.9,0.6,1.3,1c0.8,0.8,1.3,1.7,1.6,2.7
		c0.3,1,0.3,2.1,0.1,3.3c-0.2,1.2-0.6,2.2-1.1,3.2c-0.6,1-1.4,1.9-2.4,2.6c-0.5,0.4-1.1,0.8-1.6,1s-1,0.5-1.6,0.6
		c-0.5,0.1-1.1,0.2-1.6,0.3c-0.6,0-1.1,0.1-1.7,0.1h-2.9L354.8,57.9z M355.6,72c0.5,0,0.9,0,1.4-0.1c0.5,0,0.9-0.1,1.3-0.2
		s0.9-0.3,1.3-0.5c0.4-0.2,0.8-0.5,1.2-0.8c0.8-0.6,1.3-1.3,1.8-2.1c0.4-0.8,0.7-1.6,0.9-2.5c0.1-0.9,0.1-1.8-0.1-2.6
		c-0.2-0.8-0.6-1.5-1.2-2.1c-0.6-0.6-1.3-1.1-2.1-1.2c-0.8-0.2-1.6-0.3-2.6-0.3h-1.3l-2,12.5H355.6z"/>
</g>
</svg>
